<svg xmlns="http://www.w3.org/2000/svg" xmlns:xlink="http://www.w3.org/1999/xlink" width="500" zoomAndPan="magnify" viewBox="0 0 375 374.999991" height="500" preserveAspectRatio="xMidYMid meet" version="1.0"><defs><clipPath id="bd2f5a14c2"><path d="M 187.371094 0 C 83.746094 0 -0.257812 84.003906 -0.257812 187.628906 C -0.257812 291.253906 83.746094 375.257812 187.371094 375.257812 C 290.996094 375.257812 375 291.253906 375 187.628906 C 375 84.003906 290.996094 0 187.371094 0 Z M 187.371094 0 " clip-rule="nonzero"/></clipPath><clipPath id="b2e35a4915"><path d="M 0 0 L 375 0 L 375 375 L 0 375 Z M 0 0 " clip-rule="nonzero"/></clipPath><clipPath id="8c1ce65ae6"><path d="M 187.371094 0 C 83.746094 0 -0.257812 84.003906 -0.257812 187.628906 C -0.257812 291.253906 83.746094 375.257812 187.371094 375.257812 C 290.996094 375.257812 375 291.253906 375 187.628906 C 375 84.003906 290.996094 0 187.371094 0 Z M 187.371094 0 " clip-rule="nonzero"/></clipPath><clipPath id="c996eb3329"><rect x="0" width="375" y="0" height="375"/></clipPath><clipPath id="cc0842392f"><path d="M 8.332031 8.460938 L 366.667969 8.460938 L 366.667969 366.796875 L 8.332031 366.796875 Z M 8.332031 8.460938 " clip-rule="nonzero"/></clipPath><clipPath id="9ef4b73787"><path d="M 187.5 8.460938 C 88.546875 8.460938 8.332031 88.675781 8.332031 187.628906 C 8.332031 286.582031 88.546875 366.796875 187.5 366.796875 C 286.453125 366.796875 366.667969 286.582031 366.667969 187.628906 C 366.667969 88.675781 286.453125 8.460938 187.5 8.460938 Z M 187.5 8.460938 " clip-rule="nonzero"/></clipPath><clipPath id="fc4c098bc4"><path d="M 0.332031 0.460938 L 358.667969 0.460938 L 358.667969 358.796875 L 0.332031 358.796875 Z M 0.332031 0.460938 " clip-rule="nonzero"/></clipPath><clipPath id="6a6531823c"><path d="M 179.5 0.460938 C 80.546875 0.460938 0.332031 80.675781 0.332031 179.628906 C 0.332031 278.582031 80.546875 358.796875 179.5 358.796875 C 278.453125 358.796875 358.667969 278.582031 358.667969 179.628906 C 358.667969 80.675781 278.453125 0.460938 179.5 0.460938 Z M 179.5 0.460938 " clip-rule="nonzero"/></clipPath><clipPath id="36761b63f4"><rect x="0" width="359" y="0" height="359"/></clipPath><clipPath id="f895ad306a"><path d="M 55 74 L 320 74 L 320 364.957031 L 55 364.957031 Z M 55 74 " clip-rule="nonzero"/></clipPath><clipPath id="f1c6f3a983"><path d="M 0 10.207031 L 375 10.207031 L 375 198 L 0 198 Z M 0 10.207031 " clip-rule="nonzero"/></clipPath></defs><g clip-path="url(#bd2f5a14c2)"><g transform="matrix(1, 0, 0, 1, 0, 0)"><g clip-path="url(#c996eb3329)"><g clip-path="url(#b2e35a4915)"><g clip-path="url(#8c1ce65ae6)"><rect x="-82.5" width="540" fill="#ffffff" height="539.999987" y="-82.499998" fill-opacity="1"/></g></g></g></g></g><g clip-path="url(#cc0842392f)"><g clip-path="url(#9ef4b73787)"><g transform="matrix(1, 0, 0, 1, 8, 8)"><g clip-path="url(#36761b63f4)"><g clip-path="url(#fc4c098bc4)"><g clip-path="url(#6a6531823c)"><path fill="#d0bcff" d="M 0.332031 0.460938 L 358.667969 0.460938 L 358.667969 358.796875 L 0.332031 358.796875 Z M 0.332031 0.460938 " fill-opacity="1" fill-rule="nonzero"/></g></g></g></g></g></g><g clip-path="url(#f895ad306a)"><path fill="#ffffff" d="M 319.152344 190.578125 Z M 319.152344 190.578125 L 187.542969 74.023438 L 55.851562 190.628906 L 55.851562 357.25 C 55.851562 361.550781 59.328125 365.003906 63.632812 365.003906 L 145.929688 365.003906 L 145.929688 291.949219 C 145.929688 287.644531 149.382812 284.167969 153.6875 284.167969 L 221.308594 284.167969 C 225.613281 284.167969 229.066406 287.644531 229.066406 291.949219 L 229.066406 365.003906 L 311.390625 365.003906 C 315.691406 365.003906 319.144531 361.550781 319.144531 357.25 L 319.144531 190.570312 Z M 55.851562 190.628906 Z M 55.851562 190.628906 " fill-opacity="1" fill-rule="nonzero"/></g><g clip-path="url(#f1c6f3a983)"><path fill="#ffffff" d="M 186.773438 10.234375 L 0 175.609375 L 19.675781 197.804688 L 187.539062 49.164062 L 355.363281 197.804688 L 375 175.609375 L 188.269531 10.234375 L 187.542969 11.074219 L 186.777344 10.234375 Z M 186.773438 10.234375 " fill-opacity="1" fill-rule="nonzero"/></g><path fill="#ffffff" d="M 55.851562 34.039062 L 103.199219 34.039062 L 102.785156 62.082031 L 55.851562 104.484375 Z M 55.851562 34.039062 " fill-opacity="1" fill-rule="nonzero"/></svg>