<svg xmlns="http://www.w3.org/2000/svg" xmlns:xlink="http://www.w3.org/1999/xlink" width="500" zoomAndPan="magnify" viewBox="0 0 375 374.999991" height="500" preserveAspectRatio="xMidYMid meet" version="1.0"><defs><clipPath id="d6c7b0bd71"><path d="M 57.925781 57.925781 L 317.074219 57.925781 L 317.074219 317.074219 L 57.925781 317.074219 Z M 57.925781 57.925781 " clip-rule="nonzero"/></clipPath><clipPath id="e1dc98d150"><path d="M 187.5 57.925781 C 115.9375 57.925781 57.925781 115.9375 57.925781 187.5 C 57.925781 259.0625 115.9375 317.074219 187.5 317.074219 C 259.0625 317.074219 317.074219 259.0625 317.074219 187.5 C 317.074219 115.9375 259.0625 57.925781 187.5 57.925781 Z M 187.5 57.925781 " clip-rule="nonzero"/></clipPath><clipPath id="f090be1354"><path d="M 0.925781 0.925781 L 260.074219 0.925781 L 260.074219 260.074219 L 0.925781 260.074219 Z M 0.925781 0.925781 " clip-rule="nonzero"/></clipPath><clipPath id="433b188ace"><path d="M 130.5 0.925781 C 58.9375 0.925781 0.925781 58.9375 0.925781 130.5 C 0.925781 202.0625 58.9375 260.074219 130.5 260.074219 C 202.0625 260.074219 260.074219 202.0625 260.074219 130.5 C 260.074219 58.9375 202.0625 0.925781 130.5 0.925781 Z M 130.5 0.925781 " clip-rule="nonzero"/></clipPath><clipPath id="2fa5b8436a"><rect x="0" width="261" y="0" height="261"/></clipPath><clipPath id="f30c39d71c"><path d="M 69.65625 69.65625 L 305.34375 69.65625 L 305.34375 305.34375 L 69.65625 305.34375 Z M 69.65625 69.65625 " clip-rule="nonzero"/></clipPath><clipPath id="6d9a5e496a"><path d="M 187.5 69.65625 C 122.417969 69.65625 69.65625 122.417969 69.65625 187.5 C 69.65625 252.582031 122.417969 305.34375 187.5 305.34375 C 252.582031 305.34375 305.34375 252.582031 305.34375 187.5 C 305.34375 122.417969 252.582031 69.65625 187.5 69.65625 Z M 187.5 69.65625 " clip-rule="nonzero"/></clipPath><clipPath id="ac3839970d"><path d="M 0.65625 0.65625 L 236.34375 0.65625 L 236.34375 236.34375 L 0.65625 236.34375 Z M 0.65625 0.65625 " clip-rule="nonzero"/></clipPath><clipPath id="1c86241d47"><path d="M 118.5 0.65625 C 53.417969 0.65625 0.65625 53.417969 0.65625 118.5 C 0.65625 183.582031 53.417969 236.34375 118.5 236.34375 C 183.582031 236.34375 236.34375 183.582031 236.34375 118.5 C 236.34375 53.417969 183.582031 0.65625 118.5 0.65625 Z M 118.5 0.65625 " clip-rule="nonzero"/></clipPath><clipPath id="e4bdbb936c"><rect x="0" width="237" y="0" height="237"/></clipPath><clipPath id="cede30c2aa"><path d="M 91.175781 91.175781 L 283.824219 91.175781 L 283.824219 283.824219 L 91.175781 283.824219 Z M 91.175781 91.175781 " clip-rule="nonzero"/></clipPath><clipPath id="19b0c9f644"><path d="M 187.5 91.175781 C 134.300781 91.175781 91.175781 134.300781 91.175781 187.5 C 91.175781 240.699219 134.300781 283.824219 187.5 283.824219 C 240.699219 283.824219 283.824219 240.699219 283.824219 187.5 C 283.824219 134.300781 240.699219 91.175781 187.5 91.175781 Z M 187.5 91.175781 " clip-rule="nonzero"/></clipPath><clipPath id="03415fab25"><path d="M 0.175781 0.175781 L 192.824219 0.175781 L 192.824219 192.824219 L 0.175781 192.824219 Z M 0.175781 0.175781 " clip-rule="nonzero"/></clipPath><clipPath id="6c36ce2712"><path d="M 96.5 0.175781 C 43.300781 0.175781 0.175781 43.300781 0.175781 96.5 C 0.175781 149.699219 43.300781 192.824219 96.5 192.824219 C 149.699219 192.824219 192.824219 149.699219 192.824219 96.5 C 192.824219 43.300781 149.699219 0.175781 96.5 0.175781 Z M 96.5 0.175781 " clip-rule="nonzero"/></clipPath><clipPath id="d9117158bb"><rect x="0" width="193" y="0" height="193"/></clipPath><clipPath id="02411988a9"><path d="M 116 126 L 259 126 L 259 282.613281 L 116 282.613281 Z M 116 126 " clip-rule="nonzero"/></clipPath><clipPath id="72f23f0d82"><path d="M 86.695312 92.113281 L 288.445312 92.113281 L 288.445312 193 L 86.695312 193 Z M 86.695312 92.113281 " clip-rule="nonzero"/></clipPath></defs><g clip-path="url(#d6c7b0bd71)"><g clip-path="url(#e1dc98d150)"><g transform="matrix(1, 0, 0, 1, 57, 57)"><g clip-path="url(#2fa5b8436a)"><g clip-path="url(#f090be1354)"><g clip-path="url(#433b188ace)"><path fill="#000000" d="M 0.925781 0.925781 L 260.074219 0.925781 L 260.074219 260.074219 L 0.925781 260.074219 Z M 0.925781 0.925781 " fill-opacity="1" fill-rule="nonzero"/></g></g></g></g></g></g><g clip-path="url(#f30c39d71c)"><g clip-path="url(#6d9a5e496a)"><g transform="matrix(1, 0, 0, 1, 69, 69)"><g clip-path="url(#e4bdbb936c)"><g clip-path="url(#ac3839970d)"><g clip-path="url(#1c86241d47)"><path fill="#ffffff" d="M 0.65625 0.65625 L 236.34375 0.65625 L 236.34375 236.34375 L 0.65625 236.34375 Z M 0.65625 0.65625 " fill-opacity="1" fill-rule="nonzero"/></g></g></g></g></g></g><g clip-path="url(#cede30c2aa)"><g clip-path="url(#19b0c9f644)"><g transform="matrix(1, 0, 0, 1, 91, 91)"><g clip-path="url(#d9117158bb)"><g clip-path="url(#03415fab25)"><g clip-path="url(#6c36ce2712)"><path fill="#d0bcff" d="M 0.175781 0.175781 L 192.824219 0.175781 L 192.824219 192.824219 L 0.175781 192.824219 Z M 0.175781 0.175781 " fill-opacity="1" fill-rule="nonzero"/></g></g></g></g></g></g><g clip-path="url(#02411988a9)"><path fill="#ffffff" d="M 258.277344 189.085938 Z M 258.277344 189.085938 L 187.523438 126.421875 L 116.722656 189.109375 L 116.722656 278.691406 C 116.722656 281.003906 118.589844 282.859375 120.90625 282.859375 L 165.152344 282.859375 L 165.152344 243.582031 C 165.152344 241.269531 167.007812 239.398438 169.320312 239.398438 L 205.675781 239.398438 C 207.992188 239.398438 209.847656 241.269531 209.847656 243.582031 L 209.847656 282.859375 L 254.105469 282.859375 C 256.417969 282.859375 258.273438 281.003906 258.273438 278.691406 L 258.273438 189.078125 Z M 116.722656 189.113281 Z M 116.722656 189.113281 " fill-opacity="1" fill-rule="nonzero"/></g><g clip-path="url(#72f23f0d82)"><path fill="#ffffff" d="M 187.109375 92.125 L 86.695312 181.035156 L 97.273438 192.96875 L 187.519531 113.054688 L 277.746094 192.96875 L 288.304688 181.035156 L 187.914062 92.125 L 187.523438 92.578125 L 187.113281 92.125 Z M 187.109375 92.125 " fill-opacity="1" fill-rule="nonzero"/></g><path fill="#ffffff" d="M 116.722656 104.925781 L 142.175781 104.925781 L 141.953125 120 L 116.722656 142.796875 Z M 116.722656 104.925781 " fill-opacity="1" fill-rule="nonzero"/></svg>